<?xml version="1.0" standalone="no"?>
<!DOCTYPE svg PUBLIC "-//W3C//DTD SVG 20010904//EN"
 "http://www.w3.org/TR/2001/REC-SVG-20010904/DTD/svg10.dtd">
<svg version="1.0" xmlns="http://www.w3.org/2000/svg"
 width="300.000000pt" height="384.000000pt" viewBox="0 0 300.000000 384.000000"
 preserveAspectRatio="xMidYMid meet">

<g transform="translate(0.000000,384.000000) scale(0.100000,-0.100000)"
fill="#000000" stroke="none">
<path d="M1170 3803 c-233 -22 -381 -42 -538 -74 l-53 -11 -49 -105 c-64 -136
-131 -204 -264 -268 -50 -24 -107 -46 -126 -50 -19 -4 -43 -11 -52 -17 -17 -8
-18 -60 -18 -878 0 -561 4 -896 11 -947 20 -147 100 -344 195 -481 24 -35 44
-65 44 -67 0 -3 -64 -59 -142 -126 -164 -139 -181 -166 -159 -240 18 -59 136
-175 268 -262 56 -37 104 -67 107 -67 3 0 6 38 6 85 0 47 2 85 5 85 2 0 30
-16 62 -36 89 -57 267 -140 387 -179 555 -181 1181 -115 1640 174 54 33 99 61
100 61 0 0 -1 -40 -2 -90 -3 -71 -1 -90 10 -90 23 0 203 126 273 191 75 71
105 121 105 177 0 65 -41 112 -207 239 -84 64 -153 119 -153 122 0 3 9 20 21
36 78 115 179 367 199 500 7 47 10 357 8 929 l-3 859 -80 27 c-99 33 -154 61
-221 112 -81 61 -167 186 -188 271 -4 16 -16 31 -29 36 -39 15 -342 61 -496
76 -129 13 -558 18 -661 8z m656 -18 c157 -15 449 -60 490 -76 14 -5 28 -25
38 -56 35 -106 144 -235 253 -299 26 -15 89 -42 138 -59 l90 -30 3 -845 c3
-911 2 -937 -49 -1093 -143 -439 -468 -756 -904 -882 -280 -81 -613 -73 -892
20 -235 79 -405 183 -568 349 -156 160 -255 329 -317 543 -22 78 -22 79 -26
995 l-3 917 43 11 c135 34 242 94 325 183 47 51 69 85 98 155 l37 90 112 21
c111 22 377 58 471 64 147 10 517 6 661 -8z m922 -2952 c70 -53 131 -99 135
-103 5 -4 -19 -42 -53 -83 -417 -518 -1271 -715 -2000 -462 -257 89 -434 198
-612 376 -65 64 -118 121 -118 127 0 8 143 136 211 190 14 11 29 0 110 -81
221 -218 516 -360 847 -408 121 -17 413 -6 523 19 314 74 599 247 769 467 23
30 47 55 52 55 5 0 66 -44 136 -97z m192 -165 c77 -106 11 -211 -237 -376 -51
-34 -95 -62 -99 -62 -3 0 -5 40 -2 89 l4 89 107 102 c58 56 123 124 143 151
19 27 40 49 45 49 5 0 22 -19 39 -42z m-2822 -20 c59 -72 134 -146 201 -198
l71 -55 0 -84 c0 -98 8 -98 -123 -9 -109 75 -206 168 -231 222 -22 47 -16 99
15 132 29 31 35 30 67 -8z"/>
<path d="M1115 3718 c-155 -13 -354 -44 -414 -65 -51 -17 -57 -23 -95 -88 -23
-40 -78 -107 -126 -156 -73 -74 -99 -92 -185 -133 -55 -27 -107 -52 -115 -56
-13 -6 -15 -106 -18 -786 -2 -527 1 -811 8 -878 48 -424 277 -743 668 -932
163 -79 459 -164 571 -164 l41 0 0 74 0 74 -77 7 c-262 22 -518 109 -697 238
-86 62 -89 68 -39 119 41 43 68 86 60 94 -2 3 -10 -8 -16 -24 -7 -16 -30 -46
-51 -67 -35 -34 -42 -37 -76 -30 -81 15 -116 52 -99 105 4 11 40 58 81 103
112 124 114 127 104 127 -5 0 -17 -12 -27 -26 -10 -15 -35 -45 -55 -68 -35
-39 -38 -40 -55 -24 -16 17 -15 20 27 63 35 36 42 47 31 57 -10 11 -11 10 -6
-2 8 -22 -138 -165 -159 -157 -20 8 -36 48 -36 91 0 36 15 53 94 106 39 26 50
30 57 19 6 -10 9 -8 9 8 0 52 108 77 153 35 30 -29 52 -93 34 -104 -9 -6 -9
-8 1 -8 7 0 12 -14 12 -36 l0 -36 49 7 c61 8 87 -4 96 -46 9 -41 -13 -122 -31
-115 -28 11 -13 -3 35 -33 312 -191 821 -198 1147 -16 62 35 64 37 49 58 -9
12 -15 43 -15 73 0 70 20 89 89 79 51 -7 51 -7 52 22 4 102 30 155 84 173 27
9 41 8 72 -5 21 -9 43 -21 48 -28 6 -7 36 -30 69 -52 99 -68 111 -97 69 -178
-18 -36 -32 -28 -113 63 -62 70 -62 71 -44 93 l18 22 -23 -22 -24 -22 42 -47
c39 -44 40 -48 25 -65 -9 -10 -22 -15 -28 -12 -6 4 8 -15 32 -41 54 -63 58
-107 10 -136 -17 -10 -49 -22 -71 -25 -36 -7 -43 -4 -81 31 l-41 39 39 -41
c27 -30 36 -48 32 -61 -7 -23 -131 -106 -234 -157 -144 -72 -378 -136 -498
-136 l-44 0 0 -81 0 -81 43 7 c162 25 417 107 545 176 344 183 545 451 619
824 16 82 18 162 18 919 0 727 -2 830 -15 837 -8 4 -53 25 -100 47 -144 66
-238 151 -317 286 -33 57 -55 82 -77 91 -78 32 -355 71 -578 82 l-138 6 -1
-79 -1 -79 -16 48 c-8 26 -18 47 -22 47 -4 0 -14 -21 -22 -47 l-16 -48 -1 78
-1 77 -117 -1 c-65 -1 -163 -6 -218 -11z m401 -151 l21 -62 72 -5 73 -5 -56
-40 c-30 -22 -56 -45 -56 -51 0 -6 9 -37 20 -69 11 -32 19 -60 17 -62 -2 -1
-28 15 -57 37 -30 22 -56 40 -59 40 -3 0 -31 -18 -63 -41 -32 -22 -58 -36 -58
-32 0 5 10 37 21 72 13 37 18 66 12 70 -5 3 -31 22 -58 41 l-50 35 75 5 75 5
20 67 c11 36 22 64 25 61 3 -2 14 -32 26 -66z m-256 -198 c0 -6 -25 -21 -57
-35 -44 -20 -58 -22 -64 -12 -15 22 -11 26 49 46 57 19 72 20 72 1z m580 -24
c13 -8 1 -35 -15 -35 -12 0 -105 37 -113 44 -1 2 0 10 4 19 5 14 11 13 60 -3
30 -11 59 -22 64 -25z m-328 -22 c16 -14 18 -34 18 -175 l0 -158 -40 0 -40 0
0 161 c0 142 2 163 18 175 22 17 22 17 44 -3z m211 -141 c44 -45 47 -50 31
-63 -15 -12 -21 -8 -60 34 -25 28 -41 54 -37 62 8 22 15 19 66 -33z m-407 27
c3 -6 -13 -31 -37 -55 -39 -40 -45 -43 -59 -28 -13 14 -11 19 27 55 44 41 57
46 69 28z m-73 -203 c9 -14 -13 -168 -29 -194 -5 -9 -55 20 -51 31 20 48 20
47 -7 47 -22 0 -26 4 -26 30 0 27 -2 29 -25 20 -23 -9 -25 -7 -25 21 0 26 -2
29 -19 19 -11 -5 -24 -10 -29 -10 -13 0 -22 36 -11 47 13 13 212 3 222 -11z
m439 -51 c58 -12 73 -20 111 -59 43 -45 45 -46 108 -46 57 0 70 -4 117 -35 28
-20 52 -38 52 -41 0 -3 -15 4 -32 16 -65 42 -97 52 -134 40 -50 -17 -52 -30
-9 -67 52 -45 93 -55 158 -38 62 16 71 12 127 -55 48 -57 41 -68 -11 -14 -45
47 -71 57 -120 44 -21 -6 -39 -14 -39 -18 0 -4 13 -24 30 -43 40 -50 87 -70
155 -68 66 2 70 -2 115 -109 32 -76 35 -115 3 -46 -29 66 -51 84 -100 84 -41
0 -44 -2 -37 -22 25 -85 68 -132 130 -144 19 -4 41 -16 49 -28 17 -26 33 -230
16 -206 -6 8 -11 33 -11 56 0 56 -35 108 -75 112 l-30 3 5 -71 c5 -67 8 -74
41 -104 19 -18 43 -38 53 -43 16 -9 17 -15 6 -69 -14 -67 -50 -168 -57 -160
-3 2 1 30 7 61 13 63 2 108 -31 125 -30 17 -36 12 -53 -51 -20 -71 -15 -103
24 -158 l29 -40 -39 -58 c-21 -32 -58 -76 -81 -98 l-42 -40 41 77 c23 42 42
83 42 91 0 7 -11 28 -25 47 -14 19 -25 29 -25 23 0 -5 -14 -27 -30 -48 -46
-58 -57 -107 -37 -162 9 -25 14 -49 11 -54 -8 -14 -146 -109 -157 -109 -6 0
15 27 46 59 52 54 57 63 57 105 0 34 -5 48 -19 55 -16 9 -26 2 -64 -38 -48
-51 -66 -109 -54 -170 6 -28 3 -30 -59 -55 -78 -32 -184 -58 -184 -46 0 5 27
25 60 45 77 47 101 78 98 126 -1 25 -5 35 -12 30 -6 -5 -23 -11 -39 -15 -15
-4 -45 -23 -67 -42 -32 -29 -41 -46 -51 -94 -13 -66 -18 -70 -111 -70 -50 0
-57 3 -63 23 -13 42 -58 89 -126 133 -37 24 -74 44 -82 44 -8 0 -28 -14 -44
-30 l-30 -30 -65 70 c-36 38 -71 70 -78 70 -6 0 -24 -13 -38 -28 -15 -16 -37
-31 -49 -34 -22 -6 -23 -3 -23 45 0 39 -8 68 -32 115 -37 71 -58 88 -87 72
-37 -19 -53 -13 -49 22 3 27 8 33 35 39 18 3 44 14 57 23 37 24 50 20 70 -20
l17 -36 69 6 c62 6 72 5 99 -15 l30 -22 51 22 c38 16 55 19 69 11 30 -16 66
-12 94 10 34 27 59 25 99 -7 49 -41 57 -54 58 -93 0 -55 11 -60 132 -60 127 0
172 14 182 55 9 35 -9 122 -34 163 -17 28 -25 32 -63 32 -40 0 -45 3 -64 38
-13 24 -22 63 -25 109 -7 99 -18 111 -84 86 -36 -13 -41 174 -8 239 8 15 17
48 21 73 5 36 3 45 -9 45 -9 0 -21 -7 -28 -15 -16 -19 -30 -19 -30 0 0 8 15
22 33 31 45 23 48 30 45 106 -2 57 1 70 20 91 35 37 24 87 -19 87 -10 0 -31
11 -47 25 -36 30 -55 31 -91 6 -23 -17 -29 -18 -51 -5 -36 20 -55 17 -89 -12
-54 -45 -80 -10 -64 88 l8 53 55 11 c79 17 292 16 372 -1z m231 -45 c65 -41
61 -53 -13 -48 -49 3 -65 10 -90 33 -16 15 -27 32 -24 37 12 19 81 7 127 -22z
m200 -26 c27 -27 64 -110 54 -121 -8 -7 -74 42 -85 65 -5 9 -12 32 -15 50 -8
40 10 43 46 6z m-1253 -45 c14 1 36 2 50 3 22 3 25 -1 28 -37 2 -22 8 -46 15
-53 6 -7 11 -28 11 -45 0 -25 -5 -32 -20 -32 -16 0 -18 6 -16 34 4 32 2 33
-23 27 -24 -6 -26 -4 -23 21 3 29 -7 33 -44 18 -14 -5 -18 -2 -18 14 0 23 -19
28 -37 10 -14 -14 -33 -3 -33 20 0 27 12 33 50 26 19 -3 46 -6 60 -6z m713
-56 c43 -19 49 -49 16 -79 -18 -16 -20 -26 -15 -72 9 -73 1 -96 -40 -115 -24
-12 -34 -23 -34 -40 0 -33 10 -39 37 -22 22 15 23 14 23 -10 0 -28 -25 -95
-35 -95 -4 0 -37 13 -73 28 -37 16 -89 37 -116 47 -30 11 -67 36 -93 62 -24
25 -43 41 -43 35 0 -15 64 -76 101 -94 38 -19 146 -64 197 -82 26 -9 32 -15
28 -31 -3 -11 -6 -30 -6 -42 0 -33 -38 -30 -83 6 -20 15 -54 31 -76 35 -31 5
-48 16 -76 50 -23 29 -53 51 -81 62 -25 9 -54 28 -64 42 -13 16 -20 20 -20 10
0 -21 27 -43 87 -68 29 -12 55 -30 58 -41 10 -29 64 -69 95 -69 16 0 42 -11
60 -26 17 -15 46 -30 63 -33 37 -8 51 -46 21 -58 -21 -8 -132 31 -159 57 -11
10 -41 21 -67 25 -41 6 -51 13 -85 59 -26 34 -46 52 -63 53 -24 3 -24 3 -3 -7
12 -5 36 -28 53 -52 37 -51 63 -67 108 -68 18 0 40 -8 52 -20 25 -25 115 -60
153 -60 20 0 30 -7 37 -26 16 -40 12 -63 -14 -89 -31 -30 -46 -26 -108 32 -41
37 -53 43 -91 43 -59 0 -123 41 -131 85 -6 32 -33 63 -73 84 -34 17 -27 -1 9
-24 38 -25 53 -47 45 -69 -8 -21 -81 -21 -117 -1 -14 8 -45 14 -70 13 l-45 -1
45 -7 c25 -4 62 -15 83 -24 27 -12 51 -15 81 -11 32 5 45 3 56 -10 22 -27 66
-45 109 -45 34 0 49 -8 97 -50 31 -27 64 -50 73 -50 28 0 59 28 71 65 8 23 19
37 35 41 37 9 45 -3 45 -64 0 -68 13 -118 39 -152 15 -19 27 -24 55 -22 58 4
96 -55 96 -148 0 -61 -7 -64 -137 -71 -133 -6 -153 -1 -146 35 3 14 -3 38 -13
56 -18 30 -96 90 -118 90 -5 0 -27 -12 -48 -27 -36 -25 -41 -25 -79 -13 -34
12 -44 11 -75 -3 -44 -21 -63 -21 -86 -1 -20 19 -52 21 -115 10 -41 -8 -42 -8
-62 33 -12 22 -26 41 -32 41 -6 0 -32 -12 -58 -27 -27 -14 -54 -24 -62 -21 -9
4 -20 32 -27 69 -14 76 -29 94 -79 91 l-36 -3 41 45 c30 32 46 63 62 116 12
40 19 79 16 87 -3 8 -20 20 -36 26 -37 14 -38 29 -5 47 14 7 39 35 56 61 16
26 37 53 45 59 7 7 14 25 14 41 0 22 -6 30 -25 35 -13 3 -29 12 -36 20 -9 11
-7 14 14 14 38 0 74 16 138 63 45 33 56 46 52 62 -14 46 -10 50 52 56 39 3 83
16 124 37 58 29 66 30 81 17 23 -21 54 -19 75 5 20 22 52 26 89 9 21 -10 30
-8 58 9 30 19 35 20 53 6 11 -8 37 -22 58 -31z m450 0 l60 -38 -37 -8 c-51
-13 -96 -2 -136 33 -29 25 -33 31 -20 40 28 19 72 10 133 -27z m286 -49 c17
-21 21 -41 21 -97 0 -59 -2 -68 -14 -57 -8 6 -25 31 -36 56 -17 33 -20 53 -15
84 8 47 16 49 44 14z m-138 -94 l52 -50 -56 0 c-52 0 -59 3 -99 41 -47 44 -42
59 19 59 25 0 43 -11 84 -50z m-1433 -33 c6 -6 14 -26 18 -42 9 -39 22 -55 45
-55 27 0 35 -21 14 -37 -28 -20 -45 -16 -45 11 0 33 -17 42 -41 20 -18 -16
-19 -16 -19 9 0 36 -20 45 -41 18 -17 -21 -18 -21 -24 -1 -7 23 -33 27 -41 5
-9 -21 -31 -19 -44 5 -14 26 -5 40 25 40 14 0 39 9 57 20 37 23 81 26 96 7z
m1742 -144 c0 -25 -41 -133 -51 -133 -8 0 -19 63 -19 106 0 17 10 44 22 59 20
26 22 27 35 9 7 -10 13 -28 13 -41z m-222 10 c11 -10 34 -44 52 -76 l32 -58
-29 7 c-54 12 -106 62 -119 117 -5 24 -3 27 19 27 14 0 34 -8 45 -17z m-1605
-154 c17 -17 50 -43 71 -57 37 -23 39 -25 21 -38 -23 -17 -45 -18 -45 -1 0 6
-4 19 -10 27 -7 12 -12 12 -29 -4 -19 -17 -20 -17 -31 3 -14 28 -28 26 -42 -4
-11 -24 -11 -25 -25 -5 -18 25 -33 26 -33 1 0 -26 -15 -34 -40 -21 -39 21 -20
60 31 60 10 0 26 12 36 28 33 52 51 54 96 11z m1848 -46 c2 -57 -3 -79 -29
-116 -21 -32 -27 -35 -34 -22 -19 33 -11 94 16 130 32 42 46 44 47 8z m-182
-39 c12 -15 21 -38 21 -53 0 -14 5 -43 11 -64 6 -22 8 -41 6 -44 -3 -3 -22 11
-43 30 -34 31 -38 40 -42 96 -4 50 -2 61 11 61 9 0 25 -12 36 -26z m-1712
-229 c19 -8 53 -15 74 -15 41 0 52 -17 25 -39 -10 -9 -16 -8 -26 4 -19 23 -40
18 -40 -9 0 -24 -1 -24 -27 -10 -27 14 -28 13 -31 -16 -3 -27 -6 -29 -29 -24
-23 6 -24 4 -21 -22 3 -26 0 -29 -27 -29 -26 0 -30 4 -33 31 -3 27 1 33 22 38
22 5 26 12 26 40 0 33 21 66 41 66 5 0 26 -7 46 -15z m1681 -17 c16 -16 15
-90 -1 -152 l-13 -50 -22 36 c-24 39 -29 96 -11 147 12 33 27 39 47 19z m202
-25 c0 -27 -35 -78 -73 -107 -18 -14 -36 -26 -39 -26 -10 0 12 82 27 103 29
41 85 60 85 30z m-310 -229 c0 -13 -16 -53 -36 -90 -40 -71 -54 -71 -53 1 0
41 8 60 44 107 23 30 45 21 45 -18z m-1336 4 c-9 -31 -12 -34 -26 -20 -7 7
-20 12 -30 12 -15 0 -17 -5 -12 -25 6 -23 4 -25 -25 -19 -26 6 -31 3 -31 -13
0 -10 5 -24 12 -31 9 -9 5 -12 -20 -12 -33 0 -40 -8 -21 -27 17 -17 3 -43 -21
-43 -26 0 -36 25 -21 53 6 12 10 44 9 70 -3 60 8 68 89 65 34 -1 65 1 69 5 17
17 35 7 28 -15z m1556 -71 c0 -25 -49 -60 -101 -73 -29 -8 -54 -12 -57 -10 -7
8 43 68 68 82 33 17 90 18 90 1z m-372 -71 c3 -33 -3 -43 -52 -94 l-56 -57 0
51 c0 51 23 97 67 129 27 21 38 13 41 -29z m-964 -32 c13 -34 7 -44 -30 -44
-38 0 -37 2 -17 -48 4 -10 -1 -11 -21 -6 -21 5 -26 3 -26 -13 0 -10 5 -24 11
-30 7 -7 3 -12 -15 -17 -30 -7 -33 -21 -8 -35 13 -8 15 -14 6 -27 -27 -46 -57
-7 -68 88 -7 67 3 82 62 92 27 4 45 14 56 31 19 28 41 33 50 9z m736 -74 c0
-17 -9 -38 -22 -50 -30 -28 -108 -73 -115 -67 -10 11 18 74 45 99 59 55 92 61
92 18z m-517 -32 c-2 -5 -14 -8 -27 -8 -32 0 -38 -10 -21 -37 12 -17 12 -23 3
-23 -23 0 -39 -16 -32 -33 3 -9 12 -17 20 -17 8 0 14 -4 14 -10 0 -5 -9 -10
-20 -10 -12 0 -20 -7 -20 -16 0 -9 9 -18 20 -21 11 -3 20 -9 20 -13 0 -9 -28
-40 -35 -40 -2 0 -13 19 -24 43 -11 23 -29 53 -41 67 -25 31 -18 63 18 81 15
8 44 31 66 52 l38 39 12 -23 c7 -13 11 -27 9 -31z m882 3 c18 -7 18 -9 -7 -34
-26 -26 -90 -42 -138 -35 -21 3 -19 6 25 41 48 37 79 44 120 28z m-329 -167
c23 -16 23 -17 7 -30 -22 -17 -83 -18 -134 -2 -46 13 -49 23 -11 36 42 16 110
14 138 -4z m-306 -209 l0 -215 -40 0 -40 0 0 191 c0 165 2 193 18 214 9 14 27
25 40 25 l22 0 0 -215z"/>
<path d="M2002 1690 c0 -14 2 -19 5 -12 2 6 2 18 0 25 -3 6 -5 1 -5 -13z"/>
<path d="M1020 2580 c-50 -12 -89 -67 -60 -85 6 -4 31 7 56 24 25 16 51 32 57
34 12 4 2 38 -10 36 -4 -1 -24 -5 -43 -9z m18 -30 c-20 -11 -40 -24 -43 -30
-3 -5 -13 -10 -21 -10 -12 0 -12 4 -4 21 13 23 43 38 80 38 23 0 21 -2 -12
-19z"/>
<path d="M526 1307 c3 -10 9 -15 12 -12 3 3 0 11 -7 18 -10 9 -11 8 -5 -6z"/>
<path d="M2260 1276 c0 -2 8 -10 18 -17 15 -13 16 -12 3 4 -13 16 -21 21 -21
13z"/>
<path d="M2300 1220 c6 -11 13 -20 16 -20 2 0 0 9 -6 20 -6 11 -13 20 -16 20
-2 0 0 -9 6 -20z"/>
<path d="M2324 1181 c7 -11 46 -35 46 -28 0 3 -12 12 -26 22 -15 9 -23 12 -20
6z"/>
<path d="M2127 1075 c-20 -14 -37 -28 -37 -31 0 -3 12 3 28 14 15 10 36 24 47
30 11 6 15 12 10 12 -6 0 -27 -11 -48 -25z"/>
<path d="M2208 1071 c9 -16 18 -28 20 -27 5 6 -21 56 -29 56 -5 0 0 -13 9 -29z"/>
<path d="M760 1087 c0 -3 12 -12 26 -22 15 -9 23 -12 20 -6 -7 11 -46 35 -46
28z"/>
<path d="M2115 990 c-26 -17 -27 -25 -3 -21 11 1 59 -89 53 -99 -10 -16 18
-11 40 6 14 12 16 18 7 21 -21 8 -62 81 -56 98 8 20 -5 19 -41 -5z"/>
<path d="M773 985 c7 -18 -23 -80 -51 -102 -12 -10 -9 -15 19 -33 68 -41 117
-33 104 17 -4 16 -1 23 9 23 8 0 18 5 21 10 13 21 -7 48 -57 75 -42 23 -50 25
-45 10z m67 -50 c10 -12 9 -16 -4 -21 -24 -9 -47 3 -40 21 8 19 28 19 44 0z
m-30 -50 c22 -26 -7 -46 -39 -26 -12 8 -12 12 -2 25 17 20 25 20 41 1z"/>
<path d="M2039 946 c-14 -6 -33 -17 -43 -25 -23 -19 -21 -76 4 -101 24 -24 82
-27 100 -5 7 8 19 15 27 15 11 0 13 5 7 18 -4 9 -7 27 -7 40 1 25 -1 26 -30
11 -32 -17 -32 -18 -11 -33 18 -14 18 -16 3 -31 -22 -22 -52 -12 -67 21 -17
36 -15 52 8 64 14 7 26 8 39 0 26 -13 35 3 13 22 -13 12 -22 13 -43 4z"/>
<path d="M892 849 c-29 -28 -52 -53 -50 -54 2 -1 14 -6 27 -10 19 -6 23 -4 18
9 -8 20 7 29 33 21 22 -7 27 -31 8 -38 -16 -6 -1 -22 27 -31 19 -5 20 0 22 74
3 99 -8 103 -85 29z m44 -16 c-10 -10 -19 5 -10 18 6 11 8 11 12 0 2 -7 1 -15
-2 -18z"/>
<path d="M1920 888 c-19 -9 -21 -12 -9 -15 16 -4 33 -42 23 -52 -2 -2 -17 8
-33 23 -22 21 -34 26 -55 20 -27 -6 -36 -24 -12 -24 16 0 41 -82 32 -106 -5
-13 -2 -15 21 -9 37 9 40 13 21 28 -8 6 -21 28 -27 47 l-12 35 44 -43 c65 -64
81 -55 52 28 -8 24 -13 52 -9 62 6 20 0 21 -36 6z"/>
<path d="M1027 859 c14 -14 -8 -98 -29 -110 -15 -9 -11 -14 21 -24 19 -6 23
-4 18 9 -3 8 0 32 7 53 l14 38 6 -30 c17 -73 22 -89 33 -92 6 -2 18 20 28 54
9 32 22 61 28 65 14 8 9 13 -22 23 -20 6 -23 4 -18 -10 10 -24 -3 -71 -14 -53
-5 7 -9 25 -9 40 0 28 -23 48 -56 48 -13 0 -15 -3 -7 -11z"/>
<path d="M1735 830 c-3 -5 -9 -33 -12 -62 -3 -29 -10 -61 -15 -70 -10 -20 2
-22 36 -9 14 5 16 10 8 15 -24 14 -13 37 16 34 20 -2 26 -8 24 -22 -3 -16 1
-17 25 -11 15 3 29 8 31 10 2 2 -15 27 -37 56 -23 30 -41 57 -41 62 0 10 -28
9 -35 -3z m35 -61 c0 -5 -7 -9 -15 -9 -15 0 -20 12 -9 23 8 8 24 -1 24 -14z"/>
<path d="M1180 825 c0 -3 9 -23 20 -45 23 -45 26 -76 8 -83 -17 -6 -9 -13 24
-21 26 -6 27 -4 22 21 -4 22 3 36 31 67 20 21 35 39 33 41 -2 1 -14 6 -27 10
-20 6 -23 5 -17 -10 6 -17 -9 -45 -24 -45 -14 0 -21 32 -10 45 8 9 5 14 -12
19 -29 7 -48 8 -48 1z"/>
<path d="M1646 793 c3 -16 1 -39 -4 -53 -9 -24 -9 -24 -21 13 -7 20 -10 41 -6
47 4 6 -6 10 -24 10 -35 0 -36 -2 -17 -33 8 -14 10 -31 6 -47 -7 -25 -8 -24
-24 12 -8 20 -13 45 -9 54 5 14 3 16 -11 11 -10 -4 -38 -7 -64 -7 -36 0 -43
-3 -34 -12 29 -29 3 -118 -32 -105 -12 5 -16 19 -16 57 0 28 5 50 11 50 5 0 7
5 4 10 -3 6 -19 10 -34 10 -28 0 -28 -1 -23 -52 6 -68 24 -98 61 -98 41 0 61
28 61 84 0 40 3 47 16 42 9 -3 17 -6 19 -6 1 0 13 -27 25 -60 16 -44 27 -60
39 -58 9 2 17 13 19 26 4 27 19 29 27 2 3 -11 12 -20 20 -20 15 0 20 13 31 75
4 22 11 48 16 58 7 14 4 17 -16 17 -22 0 -25 -3 -20 -27z"/>
<path d="M2636 721 c-4 -5 14 -32 38 -60 51 -57 73 -51 27 8 -40 50 -58 64
-65 52z"/>
<path d="M285 700 c-4 -11 1 -32 11 -50 10 -16 15 -33 10 -37 -11 -11 -41 12
-41 32 0 10 -6 20 -13 23 -24 8 -9 -50 18 -70 49 -36 86 7 54 62 -10 16 -15
32 -11 36 9 9 37 -15 37 -32 0 -8 5 -14 10 -14 17 0 11 36 -8 53 -25 23 -59
21 -67 -3z"/>
<path d="M2577 673 c-42 -32 -47 -48 -14 -39 19 4 30 -2 56 -34 43 -54 60 -40
19 16 -24 34 -29 47 -20 56 14 14 16 28 4 28 -5 0 -25 -12 -45 -27z"/>
<path d="M372 595 c-29 -20 -50 -40 -47 -45 4 -6 13 -7 23 -1 21 11 57 -15 57
-41 0 -36 20 -18 32 29 16 62 16 93 0 93 -7 0 -36 -16 -65 -35z m44 -32 c-5
-12 -10 -13 -18 -5 -8 8 -8 15 3 28 15 18 25 4 15 -23z"/>
<path d="M2512 618 c-7 -7 -12 -27 -12 -45 0 -38 -10 -42 -28 -12 -10 15 -17
18 -24 11 -8 -8 1 -26 27 -61 20 -28 41 -51 46 -51 13 0 11 24 -3 38 -21 21 4
34 41 21 53 -19 60 5 7 25 -43 16 -44 18 -39 52 6 37 4 41 -15 22z"/>
<path d="M480 584 c0 -4 7 -12 16 -19 15 -11 14 -15 -10 -51 -14 -21 -26 -44
-26 -51 0 -26 20 -12 45 32 21 36 30 43 43 36 10 -5 22 -11 27 -13 12 -4 12
-82 0 -115 -11 -32 12 -30 27 3 7 14 30 35 51 46 27 13 36 23 29 30 -7 7 -17
5 -33 -6 -33 -22 -39 -20 -39 13 0 23 -10 35 -55 65 -52 34 -75 43 -75 30z"/>
<path d="M2400 543 c0 -3 12 -26 26 -50 20 -35 23 -47 14 -59 -21 -24 -37 -16
-64 31 -15 25 -31 45 -36 45 -34 0 34 -104 71 -108 33 -4 63 29 55 60 -8 32
-44 88 -56 88 -5 0 -10 -3 -10 -7z"/>
<path d="M2291 481 c-10 -7 -12 -21 -7 -52 l6 -44 -31 33 c-18 20 -36 31 -45
28 -19 -7 -18 -15 12 -81 17 -37 30 -53 36 -47 6 6 4 21 -7 42 -22 42 -13 49
15 11 34 -48 52 -41 45 17 l-5 47 17 -35 c10 -19 18 -37 20 -39 1 -1 6 0 12 4
7 4 0 27 -19 66 -17 32 -31 59 -33 59 -1 0 -8 -4 -16 -9z"/>
<path d="M672 409 c-30 -27 -48 -51 -42 -54 6 -4 17 -2 24 4 19 16 66 -6 66
-30 0 -10 5 -21 10 -24 6 -3 10 4 10 17 0 13 3 46 6 74 9 70 -8 73 -74 13z
m46 -24 c-2 -10 -7 -12 -17 -5 -13 7 -13 11 -1 25 15 18 24 8 18 -20z"/>
<path d="M822 341 l-21 -62 25 -9 c52 -20 70 -21 83 -6 7 8 11 23 9 34 -2 10
3 27 11 36 13 15 12 20 -5 36 -10 11 -33 22 -50 26 -31 6 -32 5 -52 -55z m84
17 c4 -5 2 -14 -4 -20 -14 -14 -53 8 -46 26 6 15 40 10 50 -6z m-17 -51 c13
-17 5 -27 -24 -27 -27 0 -35 8 -28 26 7 18 37 18 52 1z"/>
<path d="M2068 323 c-4 -74 6 -101 21 -60 11 30 46 44 66 27 8 -7 19 -10 26
-8 14 5 -78 108 -96 108 -9 0 -14 -20 -17 -67z m52 1 c0 -8 -7 -14 -15 -14
-10 0 -15 10 -15 26 0 22 2 25 15 14 8 -7 15 -19 15 -26z"/>
<path d="M1996 361 c-4 -6 -2 -29 4 -52 13 -47 6 -79 -12 -61 -16 16 -28 15
-28 -2 0 -21 17 -29 44 -22 32 8 38 29 25 84 -13 52 -23 69 -33 53z"/>
<path d="M948 295 c-12 -51 -12 -65 -3 -65 7 0 16 12 19 26 5 19 12 25 29 22
18 -2 22 -10 22 -35 0 -53 20 -38 38 27 21 72 20 70 2 70 -8 0 -15 -9 -15 -19
0 -25 -11 -32 -39 -24 -18 5 -21 10 -16 34 5 21 3 29 -7 29 -9 0 -20 -24 -30
-65z"/>
<path d="M1845 318 c-12 -40 -21 -129 -13 -134 5 -3 12 3 15 15 7 27 39 36 69
20 38 -20 38 -5 -2 55 -36 54 -60 70 -69 44z m39 -44 c9 -22 8 -24 -9 -24 -8
0 -15 9 -15 20 0 24 15 27 24 4z"/>
<path d="M1095 265 c-40 -63 -40 -65 -20 -65 8 0 15 5 15 10 0 6 14 10 31 10
22 0 32 -5 36 -20 3 -11 11 -20 18 -20 12 0 11 15 -11 118 -7 37 -31 25 -69
-33z m55 -5 c0 -11 -7 -20 -15 -20 -15 0 -21 21 -8 33 12 13 23 7 23 -13z"/>
<path d="M1216 264 c-12 -93 -2 -125 21 -64 14 38 26 38 44 -2 15 -35 48 -56
34 -22 -31 76 -31 75 -7 94 12 10 22 21 22 24 0 12 -28 5 -40 -10 -8 -8 -22
-20 -32 -25 -17 -9 -19 -7 -16 17 2 15 -2 29 -8 31 -7 2 -14 -15 -18 -43z"/>
<path d="M1703 303 c-18 -3 -21 -10 -18 -31 2 -15 7 -44 10 -64 7 -45 25 -51
25 -8 0 37 13 38 42 5 20 -23 48 -34 48 -18 0 4 -10 17 -22 30 -12 13 -17 23
-10 23 17 0 25 39 12 55 -12 14 -41 17 -87 8z m62 -33 c0 -9 -11 -16 -27 -18
-27 -3 -38 14 -21 32 12 12 48 2 48 -14z"/>
<path d="M1343 287 c-3 -5 4 -11 16 -14 18 -5 21 -13 21 -59 0 -70 16 -70 25
1 5 45 10 55 26 55 10 0 19 4 19 9 0 12 -100 19 -107 8z"/>
<path d="M1593 292 c-36 -4 -37 -7 -27 -86 7 -48 24 -64 24 -21 0 20 5 25 24
25 29 0 58 26 54 48 -5 22 -39 38 -75 34z m45 -39 c-2 -10 -13 -19 -26 -21
-17 -3 -22 2 -22 17 0 16 6 21 26 21 19 0 25 -5 22 -17z"/>
<path d="M1462 223 c4 -86 22 -85 26 2 2 54 0 65 -13 65 -13 0 -15 -11 -13
-67z"/>
</g>
</svg>
