<?xml version="1.0" standalone="no"?>
<!DOCTYPE svg PUBLIC "-//W3C//DTD SVG 20010904//EN"
 "http://www.w3.org/TR/2001/REC-SVG-20010904/DTD/svg10.dtd">
<svg version="1.0" xmlns="http://www.w3.org/2000/svg"
 width="1200.000000pt" height="527.000000pt" viewBox="0 0 1200.000000 527.000000"
 preserveAspectRatio="xMidYMid meet">

<g transform="translate(0.000000,527.000000) scale(0.100000,-0.100000)"
fill="#000000" stroke="none">
<path d="M1665 5113 c-127 -8 -382 -36 -495 -54 -207 -32 -273 -54 -303 -104
-177 -291 -316 -414 -587 -520 l-55 -21 -6 -970 c-3 -533 -2 -1045 2 -1139 12
-260 50 -445 126 -628 126 -300 331 -536 625 -719 244 -151 622 -283 913 -317
54 -7 84 -6 92 1 9 7 13 40 13 103 l0 92 -142 12 c-168 14 -291 38 -443 87
-232 74 -568 264 -577 326 -2 18 -14 24 -67 34 -135 28 -173 90 -113 185 16
24 36 50 45 58 22 18 21 25 -7 56 l-24 26 -52 -46 c-29 -25 -57 -44 -63 -43
-21 7 -57 91 -57 131 0 47 26 75 141 152 41 27 78 56 83 63 12 20 86 52 119
52 44 0 94 -28 118 -67 14 -22 26 -67 33 -121 l12 -87 64 0 c98 -1 100 -2 117
-42 18 -44 13 -115 -13 -164 -20 -40 -19 -40 106 -104 111 -56 232 -98 356
-124 104 -21 341 -47 351 -38 3 3 4 125 3 270 l-1 265 32 36 c22 26 39 36 60
36 l29 0 0 -301 0 -301 78 7 c220 19 472 99 630 198 l42 27 -22 30 c-17 23
-22 44 -22 94 -1 55 2 68 24 91 24 26 29 27 97 22 l71 -5 7 71 c14 136 65 207
151 207 45 0 116 -28 131 -52 4 -7 47 -39 94 -70 115 -77 124 -88 124 -152 -1
-57 -29 -119 -58 -124 -9 -2 -38 17 -64 41 l-48 44 -24 -29 -24 -29 31 -32
c56 -59 76 -123 52 -168 -16 -28 -85 -60 -146 -66 -48 -5 -54 -8 -54 -29 0
-63 -339 -256 -583 -333 -166 -52 -191 -58 -351 -78 l-139 -18 6 -93 c3 -52 8
-96 10 -99 11 -10 319 62 460 108 202 67 299 111 446 202 323 200 524 445 660
802 58 152 85 292 100 510 8 134 5 2086 -4 2131 -3 13 -18 26 -37 34 -153 57
-260 120 -372 219 -78 69 -131 136 -187 237 -47 86 -69 107 -134 128 -119 38
-522 90 -794 102 l-151 7 0 -96 c0 -54 -4 -97 -9 -97 -5 0 -17 23 -26 50 -9
28 -21 50 -26 50 -15 0 -10 -42 6 -54 8 -6 25 -45 38 -86 l23 -75 89 -3 c50
-2 94 -7 98 -11 5 -5 -25 -34 -67 -65 -42 -31 -76 -58 -76 -59 0 -2 13 -42 29
-90 21 -60 26 -87 17 -87 -7 0 -44 23 -84 50 l-71 51 -71 -51 c-38 -29 -74
-50 -79 -48 -5 2 2 37 15 78 13 41 24 82 24 91 0 9 -32 40 -70 68 -41 29 -68
56 -64 62 4 7 32 9 83 4 56 -5 80 -3 92 7 17 14 54 126 45 136 -3 3 -6 0 -6
-6 0 -7 -4 -12 -10 -12 -5 0 -11 42 -12 93 l-3 92 -135 1 c-74 0 -157 -1 -185
-3z m60 -501 c-14 -12 -134 -62 -150 -62 -16 0 -29 30 -17 42 4 4 39 19 77 32
60 20 72 22 85 10 9 -9 11 -17 5 -22z m803 -34 c2 -8 -4 -20 -12 -27 -12 -10
-29 -7 -87 16 -74 29 -89 43 -70 67 10 12 24 10 89 -13 44 -16 78 -34 80 -43z
m-450 -14 c22 -15 22 -19 22 -235 l0 -219 -55 0 -55 0 0 217 c0 187 2 219 17
235 20 22 42 23 71 2z m339 -252 c3 -7 -2 -21 -11 -30 -15 -15 -20 -12 -76 43
-58 58 -73 89 -47 98 13 4 126 -88 134 -111z m-610 92 c2 -7 -21 -39 -52 -73
-48 -51 -60 -59 -76 -50 -31 16 -23 34 38 88 55 49 82 59 90 35z m-233 -260
c105 -1 121 -3 133 -20 8 -11 12 -30 8 -44 -3 -14 -10 -52 -15 -85 -5 -33 -14
-77 -20 -98 -10 -35 -14 -38 -38 -32 -43 11 -53 23 -40 50 16 35 4 56 -29 53
-26 -3 -27 -1 -24 35 l3 38 -36 -7 -36 -6 0 37 c0 32 -3 36 -17 30 -47 -20
-62 -18 -69 9 -7 31 20 60 46 49 8 -4 69 -8 134 -9z m666 -78 c142 -23 161
-31 204 -82 49 -58 87 -74 177 -74 55 0 79 -5 106 -21 41 -25 37 -37 -4 -15
-55 28 -107 25 -148 -8 l-30 -24 25 -27 c34 -37 89 -71 133 -83 28 -8 57 -6
116 6 91 19 87 21 163 -70 37 -45 46 -64 16 -35 -71 67 -89 77 -138 77 -54 0
-100 -14 -100 -30 0 -20 63 -90 109 -120 41 -28 52 -30 132 -30 l87 0 35 -62
c30 -53 77 -162 77 -177 0 -12 -24 21 -43 60 -28 55 -77 89 -129 89 -50 0 -54
-13 -29 -86 25 -71 70 -118 130 -140 25 -9 58 -21 73 -26 36 -13 47 -52 55
-188 4 -84 3 -103 -7 -93 -7 6 -15 40 -19 75 -10 92 -53 145 -112 136 -24 -3
-24 -5 -20 -88 2 -47 9 -97 17 -111 11 -21 61 -69 121 -114 12 -9 11 -22 -1
-81 -17 -78 -53 -183 -69 -199 -6 -7 -8 -2 -4 15 24 110 17 170 -24 209 -41
38 -62 28 -81 -39 -26 -87 -24 -159 7 -204 57 -84 57 -88 24 -141 -35 -54
-134 -180 -150 -190 -5 -4 -13 -5 -15 -2 -6 6 34 86 65 132 25 36 27 85 6 125
-19 37 -34 38 -67 3 -60 -65 -78 -105 -78 -169 0 -34 6 -80 14 -102 l15 -41
-37 -32 c-50 -44 -172 -122 -179 -115 -4 3 26 39 65 80 71 73 72 74 72 128 0
42 -5 59 -19 72 -27 24 -51 14 -101 -40 -57 -62 -70 -98 -70 -193 0 -92 8 -84
-120 -131 -98 -36 -199 -60 -205 -49 -3 4 33 32 81 61 109 66 124 85 124 155
l0 55 -32 -7 c-70 -15 -142 -65 -168 -115 -10 -19 -23 -61 -30 -93 -7 -31 -18
-61 -24 -66 -6 -5 -53 -12 -103 -15 l-93 -7 -23 53 c-15 33 -43 70 -74 98 -55
50 -184 130 -208 130 -8 0 -33 -19 -56 -42 l-41 -43 -87 93 c-99 105 -116 111
-167 57 -18 -19 -47 -38 -63 -41 l-31 -6 0 70 c0 64 -4 79 -46 162 -52 101
-71 113 -128 86 -31 -15 -66 -13 -66 3 0 3 5 23 11 44 9 32 14 37 40 37 16 0
55 14 86 32 53 30 57 31 67 14 6 -10 20 -32 32 -50 l20 -31 98 3 c91 3 99 2
127 -22 38 -32 53 -32 124 0 55 26 59 26 92 10 48 -23 69 -20 120 14 56 38 81
38 135 -3 61 -47 89 -92 86 -140 -2 -30 3 -44 20 -57 18 -15 40 -17 169 -14
177 4 197 8 223 41 33 42 22 163 -24 250 -21 42 -43 53 -103 53 -44 0 -51 3
-68 32 -34 56 -43 91 -44 164 -1 80 -15 129 -38 138 -9 4 -32 1 -50 -5 -42
-13 -48 -8 -64 53 -15 56 0 195 31 275 24 64 32 125 20 143 -8 13 -14 13 -45
-4 -69 -38 -50 0 25 48 l35 22 3 104 c3 96 5 107 28 131 20 21 25 35 22 65 -3
36 -6 40 -53 57 -27 10 -61 29 -76 43 -33 31 -64 30 -107 -2 l-34 -27 -44 21
c-50 25 -80 19 -122 -23 -31 -32 -57 -32 -78 0 -11 18 -14 36 -10 65 3 22 9
58 12 81 7 47 13 51 135 72 108 19 281 21 389 3z m380 -69 c30 -17 56 -40 58
-50 3 -15 -5 -17 -68 -17 -79 0 -118 15 -144 55 -23 35 -13 45 48 45 41 0 63
-7 106 -33z m283 -44 c35 -37 67 -105 67 -144 0 -25 -7 -24 -55 9 -43 29 -72
79 -82 136 -5 31 -3 36 14 36 10 0 35 -17 56 -37z m-1764 -54 c24 -9 43 -8 76
1 59 16 75 4 75 -58 0 -25 6 -53 14 -61 7 -9 16 -35 19 -58 6 -46 -9 -68 -37
-57 -13 5 -17 16 -14 48 3 41 3 41 -29 38 -32 -2 -33 -1 -33 34 0 32 -2 36
-22 31 -13 -2 -31 -8 -40 -12 -15 -6 -18 -2 -18 24 0 35 -10 38 -45 15 -20
-13 -28 -14 -40 -4 -15 13 -20 51 -8 63 10 11 67 8 102 -4z m956 -49 c21 -16
44 -30 51 -30 7 0 25 -5 39 -12 29 -13 35 -58 9 -79 -35 -29 -43 -64 -37 -152
l6 -85 -57 -36 c-55 -35 -62 -48 -50 -80 7 -18 39 -22 49 -6 3 6 13 10 22 10
13 0 15 -8 10 -45 -9 -61 -33 -105 -58 -105 -11 0 -47 14 -82 31 -34 17 -89
40 -122 51 -82 27 -138 62 -180 111 -20 25 -35 36 -35 27 0 -20 74 -92 120
-118 19 -10 60 -27 90 -37 30 -10 82 -30 115 -45 33 -15 70 -31 83 -35 27 -8
29 -18 17 -87 -5 -35 -9 -38 -39 -38 -19 0 -40 7 -47 16 -20 25 -86 64 -106
64 -54 0 -91 22 -135 79 -36 45 -57 63 -95 76 -26 10 -65 31 -85 47 -21 16
-38 24 -38 18 0 -21 48 -55 109 -78 48 -19 67 -33 90 -65 43 -62 61 -75 129
-91 43 -10 74 -25 103 -50 24 -20 54 -36 73 -38 25 -2 32 -8 34 -29 2 -15 -4
-32 -14 -40 -14 -11 -27 -9 -98 15 -44 16 -93 40 -108 53 -17 16 -50 30 -94
39 -76 16 -93 28 -129 90 -28 47 -51 64 -87 64 -20 -1 -19 -3 9 -15 19 -8 47
-36 69 -70 43 -64 76 -85 131 -85 36 0 62 -12 105 -49 29 -25 138 -61 183 -61
42 0 43 -1 58 -45 14 -40 14 -49 1 -80 -18 -43 -55 -69 -86 -60 -13 4 -45 28
-73 55 -75 71 -93 80 -155 80 -47 0 -63 5 -107 35 -43 29 -53 41 -58 72 -4 21
-8 43 -10 50 -5 15 -107 84 -114 77 -4 -4 5 -14 19 -23 109 -72 120 -125 27
-137 -36 -5 -55 -2 -87 15 -29 15 -57 21 -98 20 l-57 -2 55 -6 c30 -4 68 -15
85 -26 23 -16 44 -20 102 -18 69 2 75 0 131 -38 51 -33 67 -39 114 -39 58 0
102 -23 158 -85 67 -73 131 -63 170 26 16 37 30 54 53 64 20 8 36 10 43 4 6
-5 14 -52 18 -104 8 -102 16 -130 56 -188 23 -34 29 -37 75 -37 69 0 90 -18
115 -96 26 -84 26 -144 1 -175 -18 -23 -27 -24 -178 -30 -87 -3 -166 -2 -175
3 -12 6 -18 20 -18 44 0 56 -24 98 -85 148 -69 56 -98 59 -168 14 -46 -29 -52
-31 -81 -19 -60 25 -77 24 -137 -4 l-58 -28 -40 28 c-32 21 -50 27 -83 25
-143 -8 -139 -9 -168 40 -14 25 -34 46 -43 48 -10 2 -43 -11 -73 -28 -34 -19
-66 -30 -82 -28 -25 3 -28 8 -39 73 -23 125 -38 145 -112 145 -23 0 -41 3 -41
6 0 3 14 17 30 31 42 35 74 94 105 191 25 78 25 85 10 108 -8 13 -31 30 -50
38 -42 18 -44 28 -7 51 32 21 52 43 96 110 18 28 40 56 49 64 17 14 23 67 9
87 -4 6 -20 15 -37 21 -38 12 -47 43 -12 43 33 0 104 26 132 47 12 10 48 38
80 62 41 31 54 46 46 54 -6 6 -11 25 -11 43 l0 32 73 4 c61 3 86 11 170 51
l97 48 27 -20 c35 -29 59 -26 100 9 37 33 65 37 103 15 36 -20 54 -18 96 10
20 14 40 25 44 25 4 0 24 -13 45 -30z m676 -26 c44 -26 79 -50 79 -54 0 -11
-106 -33 -131 -27 -38 10 -139 77 -139 92 0 20 30 34 74 35 29 0 59 -12 117
-46z m387 -56 c31 -34 42 -72 42 -141 0 -76 -13 -102 -36 -72 -27 34 -64 113
-64 136 0 28 21 99 30 99 4 0 16 -10 28 -22z m-250 -87 c34 -17 132 -111 132
-125 0 -3 -31 -6 -69 -6 l-69 0 -56 51 c-61 55 -68 75 -33 89 34 14 55 12 95
-9z m-1900 -101 c12 -11 24 -33 27 -48 11 -50 30 -77 63 -87 42 -12 44 -46 3
-62 -36 -13 -51 -1 -51 39 0 23 -4 28 -24 28 -14 0 -28 -4 -31 -10 -11 -19
-25 -10 -25 15 0 35 -26 42 -55 15 l-24 -23 -12 27 c-14 31 -35 34 -44 7 -8
-27 -29 -32 -54 -15 -38 27 -21 74 28 74 15 0 49 13 76 30 59 34 93 37 123 10z
m2382 -149 c19 -37 11 -95 -24 -166 l-34 -70 -12 30 c-18 47 -9 178 14 204 24
26 42 27 56 2z m-301 -24 c14 -6 35 -32 48 -57 13 -25 33 -60 43 -78 11 -18
20 -38 20 -44 0 -14 -75 -2 -105 18 -42 27 -98 131 -88 162 6 15 51 15 82 -1z
m-2182 -233 c23 -23 60 -52 82 -63 50 -26 59 -40 36 -58 -32 -23 -62 -16 -74
17 -12 35 -23 37 -50 9 l-19 -21 -17 26 c-22 33 -42 33 -57 1 -14 -30 -19 -31
-41 -5 -23 28 -34 25 -42 -10 -8 -36 -42 -41 -69 -11 -26 28 -7 57 43 65 28 4
46 14 58 32 59 87 81 89 150 18z m2527 -40 c10 -27 7 -83 -7 -117 -15 -36 -64
-97 -77 -97 -13 0 -23 84 -16 123 7 36 60 107 81 107 7 0 16 -7 19 -16z m-261
-54 c27 -21 53 -82 42 -99 -3 -6 1 -36 9 -68 8 -31 13 -59 11 -61 -8 -9 -43
10 -73 39 -35 35 -52 82 -52 150 0 65 16 75 63 39z m-2331 -331 c33 -13 68
-19 97 -17 51 3 63 -12 37 -47 -14 -19 -16 -19 -44 -2 -40 23 -49 22 -56 -9
-6 -21 -11 -24 -29 -18 -45 14 -52 11 -52 -26 0 -36 0 -36 -48 -23 -15 5 -17
0 -15 -30 3 -44 -1 -48 -44 -50 -32 -2 -33 -1 -36 40 -3 38 0 43 26 57 25 13
30 23 35 63 3 32 12 53 27 65 28 23 38 23 102 -3z m2295 -25 c24 -24 25 -31
20 -87 -9 -93 -27 -167 -41 -167 -7 0 -26 25 -41 56 -28 54 -28 58 -16 116 14
67 30 108 43 108 5 0 21 -12 35 -26z m276 -16 c14 -42 -53 -143 -118 -178 -35
-19 -41 -7 -27 48 15 56 38 89 82 120 37 25 56 28 63 10z m-423 -313 c12 -37
9 -45 -88 -204 l-15 -24 -13 24 c-29 52 -15 120 40 196 38 53 61 55 76 8z
m-1830 3 c0 -38 -14 -52 -38 -39 -11 6 -30 11 -41 11 -18 0 -21 -5 -19 -32 3
-32 2 -32 -36 -29 l-38 3 7 -42 7 -42 -31 7 c-35 8 -39 -3 -16 -39 14 -22 14
-25 0 -40 -22 -21 -48 -20 -69 3 -16 18 -16 21 2 55 16 29 19 49 15 95 -8 87
4 95 142 92 33 -1 67 3 75 9 25 16 40 11 40 -12z m2128 -109 c8 -42 -76 -96
-175 -113 -42 -7 -43 8 -1 58 53 64 167 100 176 55z m-506 -74 c13 -51 -7 -95
-73 -157 -34 -32 -65 -58 -70 -58 -15 0 -10 100 7 135 20 43 94 116 113 113 8
-2 18 -16 23 -33z m-1327 -90 l0 -40 -39 3 -39 3 7 -40 c6 -41 6 -41 -25 -41
-27 0 -31 -3 -26 -22 2 -13 8 -30 11 -39 5 -12 0 -18 -18 -23 -31 -8 -33 -26
-6 -51 19 -17 19 -19 4 -37 -29 -31 -53 -22 -75 26 -10 24 -18 59 -17 78 1 18
-2 47 -6 65 -10 44 23 78 87 87 37 6 53 14 75 42 38 48 67 44 67 -11z m1013
-79 c3 -29 -2 -44 -20 -63 -25 -27 -157 -108 -164 -100 -11 11 11 92 33 117
26 31 122 91 138 86 6 -1 11 -20 13 -40z m-720 -11 c17 -38 15 -45 -15 -45
-40 0 -56 -14 -48 -39 3 -11 11 -21 16 -21 20 0 7 -16 -21 -27 -37 -14 -38
-35 -2 -62 l27 -20 -32 -11 c-41 -15 -41 -26 -3 -48 34 -20 36 -28 13 -54 -26
-29 -38 -22 -61 35 -13 30 -36 67 -52 82 -48 46 -40 95 20 125 21 11 57 40 81
64 24 25 49 46 55 46 6 0 16 -11 22 -25z m1225 -34 c14 -14 1 -37 -36 -65 -19
-14 -47 -20 -109 -24 l-83 -4 39 40 c22 23 53 48 70 57 33 17 101 14 119 -4z
m-460 -223 c35 -25 34 -32 -9 -53 -43 -20 -116 -15 -179 14 l-40 18 32 16 c73
38 145 40 196 5z"/>
<path d="M1396 3539 c-47 -11 -62 -23 -83 -62 -13 -26 -13 -31 0 -44 13 -13
23 -10 88 30 103 62 101 101 -5 76z m49 -29 c-3 -5 -12 -10 -20 -10 -7 0 -27
-11 -43 -25 -50 -42 -74 -24 -30 22 15 16 33 23 60 23 24 0 37 -4 33 -10z"/>
<path d="M7663 3536 c-23 -6 -45 -15 -49 -19 -4 -4 -7 -73 -5 -152 1 -80 1
-145 -2 -145 -2 0 -22 7 -43 16 -33 14 -46 15 -89 4 -60 -15 -91 -41 -117 -97
-19 -44 -18 -74 9 -126 34 -68 145 -90 214 -42 42 28 49 25 49 -22 0 -28 4
-33 24 -33 28 0 32 17 41 185 3 61 10 146 15 190 5 44 12 119 16 168 6 96 10
93 -63 73z m-82 -344 c25 -23 32 -38 36 -78 5 -62 -19 -111 -72 -138 -43 -22
-87 -14 -94 19 -2 11 -12 26 -22 33 -25 17 -24 31 4 41 19 8 20 10 5 16 -24
10 -23 35 2 35 23 0 27 15 5 24 -24 9 -18 36 9 36 15 0 26 7 29 20 8 31 60 26
98 -8z"/>
<path d="M8377 3543 c-4 -3 -23 -9 -44 -12 -43 -7 -58 -31 -19 -31 36 0 36
-37 1 -46 -14 -3 -25 -10 -25 -15 0 -5 11 -9 25 -9 35 0 33 -33 -2 -50 l-28
-13 25 -6 c32 -9 35 -45 4 -49 -19 -3 -22 -11 -27 -100 -4 -53 -7 -139 -7
-190 l0 -93 28 3 c25 3 28 8 37 63 14 82 32 83 80 4 45 -73 88 -98 133 -77 56
27 68 109 19 127 -26 10 -57 -3 -57 -26 0 -13 2 -13 16 -2 14 11 18 10 30 -5
31 -44 -34 -76 -83 -41 -23 16 -63 75 -63 93 0 7 13 18 28 26 42 22 112 93
112 115 0 43 -62 56 -132 27 -47 -20 -49 -14 -31 99 23 144 30 205 25 210 -8
7 -38 6 -45 -2z m101 -359 c2 -25 -5 -38 -42 -72 -64 -59 -80 -57 -71 11 8 60
43 99 85 95 20 -2 26 -9 28 -34z"/>
<path d="M4524 3513 c-12 -9 -41 -540 -31 -566 4 -12 14 -13 51 -4 25 5 47 15
50 22 2 6 1 65 -4 131 -7 119 -4 149 16 136 6 -4 50 -72 99 -152 48 -80 91
-149 95 -153 8 -9 90 40 90 53 0 5 -52 65 -115 135 -63 70 -115 131 -115 135
0 4 25 18 56 30 82 34 148 101 164 170 15 62 15 63 2 68 -6 2 -21 -18 -34 -44
-34 -69 -95 -125 -175 -161 -39 -17 -75 -28 -81 -24 -7 4 -12 51 -14 116 -3
101 -5 110 -23 113 -11 1 -25 -1 -31 -5z"/>
<path d="M8457 3513 c-13 -12 -7 -23 13 -23 11 0 20 7 20 15 0 15 -21 21 -33
8z"/>
<path d="M6725 3453 c-3 -32 -10 -82 -15 -112 -6 -30 -10 -130 -10 -223 l0
-169 38 3 37 3 7 113 c3 62 11 136 18 165 6 28 18 84 27 122 8 39 20 83 25 98
14 36 5 43 -64 51 l-56 7 -7 -58z m77 -85 c-12 -29 -26 -72 -32 -95 -11 -45
-20 -52 -39 -29 -12 15 5 82 37 141 28 50 34 57 45 46 6 -6 3 -28 -11 -63z"/>
<path d="M7530 3480 c0 -11 7 -20 15 -20 8 0 15 9 15 20 0 11 -7 20 -15 20 -8
0 -15 -9 -15 -20z"/>
<path d="M8452 3424 c4 -21 22 -23 26 -1 2 10 -3 17 -13 17 -10 0 -15 -6 -13
-16z"/>
<path d="M7534 3409 c-10 -17 13 -36 27 -22 12 12 4 33 -11 33 -5 0 -12 -5
-16 -11z"/>
<path d="M5823 3352 c-6 -4 -13 -32 -15 -62 l-3 -55 -38 -3 c-51 -4 -48 -35 3
-42 39 -6 58 -40 22 -40 -11 0 -25 -6 -31 -14 -10 -12 -6 -15 19 -21 27 -6 30
-10 30 -44 0 -21 3 -66 6 -100 6 -49 10 -61 23 -59 18 4 29 37 30 94 2 65 19
106 45 102 23 -3 46 8 46 23 0 5 -10 9 -22 9 -13 0 -30 5 -38 10 -22 14 0 44
36 50 37 7 37 23 -1 30 -27 5 -30 9 -26 35 2 17 5 44 5 60 1 28 -2 30 -39 33
-22 1 -45 -1 -52 -6z m60 -44 c17 -26 1 -50 -30 -46 -34 4 -43 34 -16 53 21
17 33 15 46 -7z m-9 -95 c4 -9 0 -23 -9 -32 -13 -14 -17 -14 -30 0 -19 19 -10
49 15 49 10 0 21 -8 24 -17z"/>
<path d="M8440 3335 c0 -8 7 -15 15 -15 8 0 15 7 15 15 0 8 -7 15 -15 15 -8 0
-15 -7 -15 -15z"/>
<path d="M7550 3316 c0 -9 7 -16 16 -16 9 0 14 5 12 12 -6 18 -28 21 -28 4z"/>
<path d="M6967 3250 c-20 -4 -40 -10 -43 -13 -5 -5 5 -155 19 -276 3 -20 34
-38 46 -26 5 6 14 53 19 105 9 90 12 96 43 122 18 16 43 28 55 28 41 0 48 -24
46 -140 -1 -60 1 -111 5 -113 5 -3 32 0 61 6 36 8 52 16 52 26 -1 34 -38 178
-54 208 -32 62 -91 71 -152 22 l-39 -31 -3 39 c-4 48 -8 51 -55 43z m258 -165
c0 -13 -8 -21 -22 -23 -19 -3 -23 1 -23 23 0 22 4 26 23 23 14 -2 22 -10 22
-23z m11 -77 c12 -39 -45 -60 -60 -22 -9 23 5 44 29 44 15 0 26 -8 31 -22z"/>
<path d="M5038 3237 c-31 -15 -68 -46 -68 -60 0 -5 11 -2 25 7 31 21 118 21
135 1 18 -22 6 -42 -37 -55 -49 -16 -106 -57 -125 -90 -22 -38 -2 -89 43 -113
45 -24 177 -17 244 12 42 19 45 22 45 58 0 50 -32 154 -60 193 -12 16 -34 37
-50 45 -34 18 -114 18 -152 2z m125 -131 c3 -8 9 -41 13 -74 9 -79 -4 -102
-56 -102 -38 0 -40 2 -51 43 -6 23 -15 54 -19 68 -10 33 -3 44 40 63 44 19 66
20 73 2z m91 -2 c7 -19 -10 -44 -30 -44 -16 0 -33 30 -27 48 7 18 50 15 57 -4z
m1 -77 c27 -20 13 -67 -20 -67 -35 0 -52 35 -29 61 20 23 25 23 49 6z"/>
<path d="M5422 3238 c-5 -7 -13 -49 -17 -93 -4 -51 -3 -75 3 -67 14 21 47 10
50 -16 3 -22 0 -23 -35 -20 l-38 3 -7 -59 c-4 -33 -7 -60 -5 -62 1 -1 23 -5
50 -8 l47 -7 0 99 0 98 36 42 c23 27 44 42 59 42 40 0 55 -11 55 -40 0 -25 4
-29 30 -28 23 1 27 4 20 14 -12 13 -3 64 11 64 5 0 9 5 9 11 0 5 -4 8 -9 4 -5
-3 -26 4 -45 16 -29 17 -39 19 -51 9 -8 -7 -29 -10 -45 -8 -24 4 -30 1 -25
-10 5 -14 -20 -52 -36 -52 -4 0 -10 18 -14 40 -7 40 -24 51 -43 28z m29 -244
c17 -21 0 -49 -32 -49 -27 0 -37 28 -19 50 16 19 34 19 51 -1z"/>
<path d="M4742 3224 c4 -21 22 -23 26 -1 2 10 -3 17 -13 17 -10 0 -15 -6 -13
-16z"/>
<path d="M6053 3224 c-18 -8 -16 -24 2 -24 8 0 15 -7 15 -15 0 -8 -4 -15 -10
-15 -5 0 -10 -4 -10 -10 0 -5 7 -10 15 -10 18 0 20 -21 3 -38 -9 -9 -8 -15 6
-25 16 -11 16 -17 6 -33 -10 -17 -10 -27 4 -56 31 -64 112 -75 168 -24 29 28
38 25 38 -14 0 -23 5 -29 31 -34 70 -14 67 -20 62 127 -5 168 -7 177 -37 177
-21 0 -24 -5 -30 -71 -3 -39 -13 -83 -20 -97 -24 -44 -65 -82 -90 -82 -42 0
-51 24 -51 139 l0 106 -45 2 c-25 1 -51 0 -57 -3z"/>
<path d="M7833 3223 c-18 -7 -16 -23 2 -23 8 0 15 -7 15 -15 0 -8 -7 -15 -15
-15 -15 0 -22 -20 -7 -20 4 0 14 -4 22 -10 12 -7 12 -12 -4 -29 -18 -19 -18
-21 -2 -21 15 0 16 -7 11 -45 -7 -41 -5 -47 24 -76 28 -28 37 -31 73 -26 23 3
54 15 69 26 38 28 53 27 45 -4 -5 -21 -2 -27 19 -35 15 -6 37 -10 51 -10 28 0
28 6 17 198 l-6 113 -26 -3 c-25 -3 -26 -7 -34 -78 -11 -104 -56 -170 -114
-170 -34 0 -43 29 -43 144 l0 106 -42 -1 c-24 0 -49 -3 -55 -6z"/>
<path d="M4792 3164 c4 -21 22 -23 26 -1 2 10 -3 17 -13 17 -10 0 -15 -6 -13
-16z"/>
<path d="M6207 3096 c-5 -15 -6 -31 -3 -34 8 -8 18 25 14 45 -3 13 -6 10 -11
-11z"/>
<path d="M4847 3103 c-13 -12 -7 -23 13 -23 11 0 20 7 20 15 0 15 -21 21 -33
8z"/>
<path d="M7981 3084 c0 -11 3 -14 6 -6 3 7 2 16 -1 19 -3 4 -6 -2 -5 -13z"/>
<path d="M4905 3031 c-3 -5 -1 -12 5 -16 12 -7 30 2 30 16 0 12 -27 12 -35 0z"/>
<path d="M7855 2203 c4 -136 11 -270 14 -298 l6 -50 50 -8 c64 -10 179 -1 213
17 39 21 82 64 93 93 29 77 -3 178 -77 241 -43 36 -44 39 -33 70 32 91 -81
182 -226 182 l-47 0 7 -247z m162 202 c7 -5 23 -113 23 -150 0 -43 -12 -60
-59 -85 -39 -20 -45 -3 -32 112 16 135 17 140 44 132 12 -3 23 -7 24 -9z m98
-259 c27 -49 17 -126 -22 -174 -33 -41 -131 -89 -159 -78 -15 6 -16 17 -11 90
10 128 15 144 46 151 15 3 44 16 66 29 46 28 57 26 80 -18z m85 -101 c18 -21
5 -47 -22 -43 -26 3 -37 36 -16 49 18 12 24 11 38 -6z m-20 -101 c0 -28 -25
-42 -49 -27 -23 15 -26 45 -6 59 25 18 55 0 55 -32z m-85 -54 c0 -38 -39 -35
-43 3 -3 25 0 28 20 25 17 -2 23 -9 23 -28z"/>
<path d="M8030 2088 c-26 -41 -40 -71 -36 -75 7 -7 58 75 54 87 -1 5 -10 0
-18 -12z"/>
<path d="M4845 2375 c-15 -31 -46 -72 -69 -91 -46 -39 -128 -82 -166 -86 l-25
-3 -3 113 -3 113 -32 -3 -32 -3 -12 -205 c-6 -113 -12 -242 -12 -287 l-1 -83
48 7 c26 3 50 10 53 15 3 5 3 69 1 143 -5 139 2 161 31 113 8 -13 32 -51 53
-85 21 -35 59 -94 83 -133 24 -38 48 -70 55 -70 6 0 27 13 46 29 l34 28 -117
132 c-65 72 -116 135 -112 141 3 5 33 21 66 36 74 34 131 95 149 161 17 63 17
65 3 70 -6 2 -23 -21 -38 -52z"/>
<path d="M6641 2334 c0 -12 -7 -27 -15 -33 -21 -18 -18 -71 5 -71 9 0 19 -5
21 -12 3 -7 12 -4 27 11 29 29 26 75 -6 79 -13 2 -23 12 -26 25 -4 22 -4 22
-6 1z"/>
<path d="M11911 2332 c0 -12 -8 -25 -16 -28 -22 -9 -17 -74 7 -74 10 0 18 -5
18 -12 0 -6 11 -1 24 11 31 29 29 74 -2 79 -12 2 -23 12 -25 25 -4 22 -4 22
-6 -1z"/>
<path d="M5506 2170 c-47 -14 -76 -49 -76 -90 0 -30 9 -44 55 -90 61 -60 75
-98 51 -135 -23 -35 -92 -35 -129 -1 -15 14 -29 20 -33 15 -8 -13 12 -35 49
-54 97 -48 228 34 201 127 -7 24 -26 44 -72 76 -52 36 -62 48 -62 72 0 54 71
79 111 39 17 -17 18 -23 8 -35 -7 -9 -21 -13 -31 -10 -12 3 -18 0 -15 -7 2 -7
16 -13 30 -15 21 -3 29 2 36 21 15 39 3 64 -40 81 -44 18 -43 18 -83 6z"/>
<path d="M5891 2157 c-13 -33 -36 -35 -62 -4 -15 18 -18 19 -19 5 0 -9 5 -20
11 -23 18 -12 -23 -47 -49 -42 -18 3 -22 1 -17 -12 10 -24 10 -24 2 -58 -4
-20 -13 -33 -22 -33 -21 0 -19 -17 4 -23 21 -5 33 -57 18 -83 -6 -11 -6 -15 0
-11 5 3 27 -5 47 -19 27 -19 36 -31 33 -45 -6 -21 3 -25 20 -8 14 14 83 1 83
-17 0 -8 5 -14 10 -14 6 0 10 4 10 10 0 5 14 17 32 26 24 12 36 14 49 6 15 -9
18 -6 21 24 2 19 3 34 1 34 -1 0 -17 -9 -35 -20 -45 -27 -89 -26 -122 5 -30
28 -46 64 -46 104 0 27 3 29 75 42 67 11 77 16 90 41 10 22 11 28 1 28 -7 0
-21 9 -31 20 -14 16 -16 23 -7 32 17 17 15 33 -2 18 -22 -18 -59 -8 -73 20
l-12 24 -10 -27z m49 -102 c0 -20 -32 -35 -74 -35 -40 0 -43 5 -19 32 20 23
93 26 93 3z"/>
<path d="M11670 2161 c0 -28 -14 -33 -46 -16 -37 19 -65 19 -111 0 -49 -21
-71 -42 -89 -84 -20 -47 -17 -80 9 -126 38 -67 117 -100 182 -75 20 8 27 7 31
-5 10 -24 -5 -80 -29 -116 -40 -59 -100 -58 -166 4 l-34 32 7 -30 c10 -40 62
-93 103 -104 108 -30 190 72 210 260 5 51 3 63 -10 71 -24 13 -22 48 3 48 26
0 26 16 -1 23 -28 8 -21 39 11 47 l25 6 -22 12 c-24 13 -21 42 3 42 22 0 16
17 -8 24 -45 12 -68 7 -68 -13z m-40 -83 c31 -34 28 -117 -6 -157 -69 -82
-165 6 -124 113 24 64 90 87 130 44z"/>
<path d="M11549 2014 c-16 -20 -1 -48 29 -52 25 -4 39 32 22 53 -16 19 -34 19
-51 -1z"/>
<path d="M5141 2151 c-14 -26 -39 -27 -57 -4 -7 10 -16 15 -20 11 -4 -4 -2
-14 5 -22 17 -20 -35 -62 -55 -45 -17 14 -19 -2 -3 -18 15 -15 -7 -83 -27 -83
-8 0 -14 -4 -14 -10 0 -5 6 -10 14 -10 8 0 19 -14 25 -31 14 -39 14 -34 -6
-54 -15 -16 -15 -17 3 -14 30 6 86 -39 79 -62 -7 -21 5 -25 22 -8 14 14 83 1
83 -17 0 -8 5 -14 10 -14 6 0 10 4 10 10 0 5 14 17 32 26 24 13 36 14 50 5 24
-15 24 -15 24 24 0 19 -1 35 -3 35 -1 0 -17 -9 -35 -20 -36 -22 -79 -26 -109
-10 -25 14 -59 82 -59 118 0 29 2 30 76 43 62 11 78 17 84 35 5 12 15 24 22
27 7 3 3 6 -9 6 -27 1 -46 34 -37 64 5 18 4 20 -7 10 -20 -20 -56 -15 -73 8
l-14 21 -11 -21z m49 -100 c0 -20 -26 -31 -77 -31 -37 0 -40 6 -16 32 23 26
93 25 93 -1z"/>
<path d="M6180 2151 c-24 -7 -25 -10 -22 -71 2 -36 8 -83 13 -105 4 -22 9 -59
9 -81 0 -48 18 -70 42 -51 11 8 17 38 21 94 7 91 23 125 68 148 61 32 79 0 79
-140 l0 -106 53 7 c54 7 71 19 61 44 -3 8 -9 38 -14 65 -11 65 -36 134 -57
157 -24 27 -90 24 -134 -7 -42 -28 -49 -25 -49 22 0 35 -13 40 -70 24z m278
-155 c4 -21 -14 -37 -35 -29 -14 5 -18 35 -6 47 12 12 38 1 41 -18z m6 -69
c30 -22 -2 -65 -39 -51 -18 7 -20 50 -2 57 19 8 22 8 41 -6z"/>
<path d="M6873 2139 c-45 -22 -70 -46 -60 -56 4 -3 13 -1 21 6 43 36 125 30
147 -10 8 -16 5 -21 -16 -29 -78 -30 -132 -62 -148 -89 -27 -45 -22 -85 14
-115 27 -23 39 -26 108 -26 78 0 180 23 194 44 19 28 -15 180 -55 237 -39 58
-131 75 -205 38z m131 -131 c26 -127 12 -178 -49 -178 -31 0 -35 4 -45 38 -31
108 -26 129 35 150 45 16 54 14 59 -10z m86 7 c10 -12 10 -18 0 -30 -16 -19
-34 -19 -51 1 -11 14 -10 18 6 30 24 18 30 18 45 -1z m10 -90 c14 -17 5 -51
-17 -59 -18 -7 -53 20 -53 40 0 14 27 33 46 34 6 0 17 -7 24 -15z"/>
<path d="M7243 2153 c-27 -5 -26 3 -13 -138 17 -172 17 -175 44 -175 21 0 24
6 30 53 3 28 6 69 6 90 0 28 8 45 33 71 39 42 67 51 93 32 17 -13 19 -26 18
-131 l-1 -116 46 6 c74 10 73 9 65 62 -16 115 -49 205 -79 217 -37 14 -89 6
-121 -19 -18 -14 -35 -25 -38 -25 -3 0 -6 18 -6 40 0 37 -2 40 -27 39 -16 -1
-38 -4 -50 -6z m277 -143 c11 -7 12 -14 4 -27 -15 -24 -33 -28 -40 -9 -7 18 1
46 13 46 4 0 15 -5 23 -10z m14 -93 c9 -14 7 -21 -7 -32 -25 -18 -47 -9 -47
19 0 40 32 48 54 13z"/>
<path d="M8395 2144 c-32 -16 -77 -55 -72 -61 2 -2 19 4 37 14 43 21 82 21
115 -1 36 -24 28 -37 -35 -61 -29 -11 -71 -36 -92 -56 -46 -43 -50 -83 -14
-126 24 -28 26 -28 133 -27 80 0 118 5 147 18 l39 17 -7 70 c-13 142 -80 229
-176 229 -25 0 -58 -7 -75 -16z m127 -159 c20 -112 5 -154 -54 -155 -32 0 -39
12 -58 93 -15 65 -11 74 43 94 49 18 61 12 69 -32z m76 36 c23 -14 10 -46 -18
-46 -16 0 -26 6 -28 19 -3 16 12 36 28 36 3 0 11 -4 18 -9z m16 -97 c16 -16 9
-45 -14 -59 -15 -9 -50 14 -50 33 0 38 37 53 64 26z"/>
<path d="M8753 2150 c-24 -10 -23 -32 1 -220 10 -81 12 -85 36 -85 24 0 25 2
32 95 7 85 10 97 35 121 36 35 64 43 89 25 17 -13 19 -27 19 -128 l0 -113 45
3 c71 4 73 6 65 60 -12 81 -42 182 -60 202 -27 30 -97 27 -139 -5 -18 -14 -36
-25 -39 -25 -4 0 -7 18 -7 40 0 37 -2 40 -27 39 -16 0 -38 -4 -50 -9z m285
-154 c4 -21 -14 -37 -35 -29 -14 5 -18 35 -6 47 12 12 38 1 41 -18z m6 -71
c26 -26 -3 -62 -39 -49 -18 7 -20 50 -2 57 20 9 25 8 41 -8z"/>
<path d="M10040 2152 c-24 -8 -28 -22 -17 -56 32 -97 41 -116 54 -116 11 0 13
-7 9 -25 -5 -18 -2 -25 9 -25 17 0 20 -16 5 -25 -17 -10 -11 -25 10 -25 24 0
27 -25 4 -38 -9 -5 -12 -12 -7 -15 5 -3 26 4 47 16 35 20 41 30 69 114 31 94
43 105 63 55 7 -15 25 -61 42 -102 30 -74 52 -94 75 -71 9 9 109 244 124 292
3 10 -3 18 -15 21 -22 6 -34 -14 -48 -77 -4 -16 -10 -34 -13 -40 -4 -5 -15
-36 -26 -67 -10 -32 -22 -58 -26 -58 -9 0 -24 52 -34 115 -13 80 -29 135 -40
135 -7 0 -25 -5 -41 -10 -23 -8 -34 -24 -56 -78 -15 -37 -30 -79 -34 -94 -6
-26 -30 -56 -38 -47 -4 5 -59 133 -76 179 -16 44 -21 49 -40 42z"/>
<path d="M10655 2144 c-33 -17 -67 -45 -62 -51 2 -1 25 4 50 13 44 15 49 15
79 -3 18 -11 33 -25 33 -33 0 -8 -24 -23 -54 -35 -30 -11 -72 -36 -93 -56 -46
-43 -50 -83 -14 -126 24 -28 26 -28 133 -27 80 0 118 5 147 18 l39 17 -6 73
c-8 86 -47 169 -97 204 -39 26 -110 30 -155 6z m129 -197 c7 -68 6 -80 -9 -97
-11 -12 -31 -20 -51 -20 -30 0 -33 3 -44 48 -28 112 -26 118 35 140 54 19 59
14 69 -71z m74 74 c23 -14 10 -46 -18 -46 -16 0 -26 6 -28 19 -3 16 12 36 28
36 3 0 11 -4 18 -9z m10 -93 c18 -18 15 -46 -7 -57 -14 -8 -22 -6 -35 8 -9 9
-16 22 -16 27 0 13 21 34 35 34 6 0 16 -5 23 -12z"/>
<path d="M11025 2153 c-11 -3 -23 -8 -27 -11 -9 -9 22 -284 34 -299 7 -9 16
-10 28 -3 14 7 19 28 24 100 7 80 11 95 34 120 38 40 66 46 92 20 20 -20 21
-31 19 -128 l-2 -107 54 3 c30 2 56 5 58 7 2 2 -1 32 -7 67 -29 175 -44 201
-116 206 -38 3 -52 -2 -77 -22 -41 -35 -49 -33 -49 14 0 42 -8 46 -65 33z
m270 -163 c0 -29 -32 -41 -41 -16 -9 24 4 48 23 44 12 -2 18 -12 18 -28z m13
-62 c18 -18 15 -36 -7 -48 -27 -14 -51 -2 -51 25 0 32 35 46 58 23z"/>
<path d="M4740 2135 c0 -8 7 -15 15 -15 8 0 15 7 15 15 0 8 -7 15 -15 15 -8 0
-15 -7 -15 -15z"/>
<path d="M6629 2148 c0 -2 -6 -46 -14 -98 -7 -52 -19 -124 -25 -159 -6 -35
-10 -65 -8 -66 2 -1 31 -5 65 -9 l63 -7 -6 128 c-10 189 -14 207 -47 211 -15
2 -27 2 -28 0z m49 -162 c5 -25 -12 -39 -37 -31 -20 6 -28 34 -14 49 13 13 48
1 51 -18z m-8 -81 c18 -22 3 -55 -25 -55 -18 0 -26 7 -31 26 -10 39 30 60 56
29z"/>
<path d="M11896 2128 c-12 -64 -47 -301 -44 -303 2 -1 31 -5 66 -9 l62 -7 -1
33 c0 18 -6 94 -12 168 l-12 135 -27 3 c-22 3 -28 -1 -32 -20z m49 -148 c0
-18 -6 -26 -23 -28 -24 -4 -38 18 -28 44 3 9 15 14 28 12 17 -2 23 -10 23 -28z
m-7 -69 c8 -4 12 -19 10 -32 -2 -19 -9 -24 -33 -24 -21 0 -31 5 -33 18 -8 40
22 60 56 38z"/>
<path d="M9637 2133 c-38 -4 -38 -5 -22 -23 16 -18 16 -20 1 -26 -20 -8 -21
-34 -1 -34 18 0 20 -26 3 -34 -9 -3 -8 -9 6 -20 15 -12 17 -18 7 -30 -16 -19
-5 -59 25 -91 18 -20 33 -25 69 -25 38 0 52 5 76 30 31 30 35 28 41 -20 3 -22
8 -25 49 -28 l47 -3 -5 148 c-3 81 -10 151 -16 154 -23 15 -47 -3 -47 -36 0
-106 -61 -210 -118 -203 -41 5 -53 39 -50 148 2 104 5 100 -65 93z"/>
<path d="M9200 2120 c0 -5 -9 -10 -20 -10 -11 0 -20 -4 -20 -10 0 -5 9 -10 20
-10 30 0 29 -60 -2 -68 -21 -5 -21 -5 -1 -13 30 -11 38 -56 16 -82 -18 -20
-17 -20 6 -14 29 7 85 -28 77 -49 -3 -8 -1 -14 3 -14 5 0 11 7 15 15 7 18 62
20 69 3 3 -7 6 -4 6 8 1 19 34 64 48 64 9 0 -6 -121 -20 -163 -28 -79 -84
-116 -146 -96 -20 6 -42 16 -48 22 -9 6 -13 6 -13 -2 0 -6 19 -25 43 -42 l42
-32 -35 6 c-19 4 -45 9 -57 13 -35 10 -27 -12 10 -27 49 -21 166 -18 200 5 72
49 112 190 105 373 -5 126 -12 142 -55 127 -27 -9 -28 -12 -29 -82 -1 -88 -24
-122 -83 -122 -67 1 -95 43 -93 143 1 60 -1 67 -19 67 -10 0 -19 -4 -19 -10z"/>
<path d="M4792 2068 c6 -18 28 -21 28 -4 0 9 -7 16 -16 16 -9 0 -14 -5 -12
-12z"/>
<path d="M4847 2013 c-13 -12 -7 -23 13 -23 11 0 20 7 20 15 0 15 -21 21 -33
8z"/>
<path d="M9761 2013 c0 -6 -4 -20 -7 -30 -5 -14 -4 -15 5 -7 7 7 11 20 8 30
-3 11 -5 14 -6 7z"/>
<path d="M5392 1978 c-26 -26 -2 -75 31 -62 22 8 29 32 17 55 -12 22 -30 25
-48 7z"/>
<path d="M4905 1940 c-11 -17 5 -32 21 -19 7 6 11 15 8 20 -7 12 -21 11 -29
-1z"/>
<path d="M10234 1808 c-7 -22 19 -52 40 -45 17 6 29 34 23 51 -10 24 -54 21
-63 -6z"/>
<path d="M2908 1362 c-32 -20 -35 -28 -10 -36 24 -8 84 -110 76 -130 -8 -22
15 -20 46 4 l25 19 -22 16 c-26 18 -73 100 -73 126 0 23 -6 23 -42 1z"/>
<path d="M1064 1343 c7 -21 -48 -121 -69 -130 -25 -9 -17 -20 39 -52 81 -47
126 -39 126 22 0 17 8 36 22 46 35 29 18 63 -51 100 -68 36 -74 37 -67 14z
m78 -50 c35 -32 11 -66 -31 -43 -24 12 -27 30 -9 48 15 15 18 15 40 -5z m-34
-69 c26 -18 28 -36 7 -54 -35 -29 -85 26 -53 58 15 15 19 15 46 -4z"/>
<path d="M2781 1288 c-74 -36 -87 -109 -30 -164 36 -35 84 -37 124 -6 15 12
34 22 41 22 17 0 19 36 3 46 -6 3 -9 17 -6 30 5 28 -3 30 -45 8 l-31 -16 24
-19 c20 -15 22 -21 13 -36 -6 -10 -25 -19 -41 -21 -57 -6 -97 83 -56 123 12
13 26 15 55 11 42 -7 48 2 20 27 -22 20 -17 21 -71 -5z"/>
<path d="M3570 1289 c0 -5 5 -7 10 -4 6 3 10 8 10 11 0 2 -4 4 -10 4 -5 0 -10
-5 -10 -11z"/>
<path d="M440 1240 c0 -5 5 -10 10 -10 6 0 10 5 10 10 0 6 -4 10 -10 10 -5 0
-10 -4 -10 -10z"/>
<path d="M1235 1175 c-36 -36 -71 -65 -77 -65 -17 0 9 -27 32 -33 16 -4 20 0
20 18 0 30 27 39 56 20 28 -18 30 -33 7 -51 -16 -11 -15 -14 19 -28 21 -9 39
-16 40 -16 2 0 4 44 5 97 2 90 -5 123 -28 123 -4 0 -37 -29 -74 -65z m55 -15
c0 -11 -7 -20 -15 -20 -15 0 -21 21 -8 33 12 13 23 7 23 -13z"/>
<path d="M2638 1223 c-23 -6 -23 -18 2 -43 22 -22 27 -50 8 -50 -7 0 -26 14
-44 31 -27 26 -37 30 -63 24 -34 -7 -38 -16 -17 -35 22 -17 49 -107 42 -135
-7 -28 1 -30 39 -13 l25 11 -20 22 c-12 12 -23 40 -27 61 l-6 39 39 -35 c21
-19 44 -41 52 -47 14 -14 35 -17 44 -7 4 3 -5 38 -18 77 -13 39 -22 79 -18 89
5 18 -3 21 -38 11z"/>
<path d="M1417 1174 c10 -26 -19 -124 -41 -140 -23 -16 -15 -28 25 -37 24 -6
25 -5 25 43 0 45 16 82 29 69 2 -3 10 -34 17 -70 11 -52 17 -64 32 -64 15 0
23 15 38 70 10 39 26 76 35 82 20 15 17 19 -19 28 -24 6 -26 5 -26 -29 0 -71
-27 -72 -38 0 -5 36 -12 47 -31 55 -37 14 -53 11 -46 -7z"/>
<path d="M2383 1138 c-4 -7 -13 -47 -19 -88 -6 -41 -14 -83 -18 -92 -7 -15 -3
-18 17 -18 30 0 44 17 29 32 -19 19 5 48 38 48 28 0 35 -8 31 -37 -2 -15 55
-18 64 -4 7 13 -105 171 -121 171 -7 0 -16 -6 -21 -12z m40 -73 c8 -18 -11
-31 -25 -17 -11 11 -3 32 12 32 4 0 10 -7 13 -15z"/>
<path d="M1625 1132 c-2 -3 7 -26 20 -53 27 -52 33 -114 13 -122 -19 -8 11
-27 42 -27 24 0 25 3 22 39 -4 36 0 44 43 86 26 25 46 47 44 50 -2 2 -16 6
-31 10 -23 6 -27 4 -30 -21 -4 -34 -34 -56 -48 -34 -6 8 -7 27 -4 41 5 24 2
27 -31 31 -19 2 -38 2 -40 0z"/>
<path d="M2275 1123 c-18 -3 -20 -11 -20 -60 0 -34 -5 -58 -12 -60 -14 -5 -37
61 -30 88 4 16 0 19 -29 19 -38 0 -42 -9 -19 -44 16 -24 11 -86 -7 -86 -12 0
-38 63 -38 95 0 25 -1 25 -75 25 -68 0 -91 -9 -65 -25 6 -3 10 -28 10 -56 0
-36 -5 -54 -20 -69 -24 -24 -34 -25 -54 -4 -19 19 -22 114 -4 132 10 10 10 15
-2 23 -23 14 -66 7 -60 -11 2 -8 6 -44 8 -80 5 -81 20 -100 78 -100 55 0 74
25 74 95 0 60 10 79 38 71 13 -5 31 -33 53 -86 24 -59 37 -80 51 -80 13 0 20
10 25 30 8 43 20 46 38 10 28 -53 48 -36 65 55 7 39 17 78 22 89 12 22 1 33
-27 29z"/>
<path d="M3960 990 c0 -5 5 -10 10 -10 6 0 10 5 10 10 0 6 -4 10 -10 10 -5 0
-10 -4 -10 -10z"/>
<path d="M411 973 c-26 -18 -26 -29 0 -77 23 -43 19 -66 -9 -66 -24 0 -39 17
-44 48 -4 26 -21 31 -26 7 -6 -26 47 -75 80 -75 44 0 57 38 29 85 -26 44 -27
65 -3 65 23 0 42 -19 42 -43 0 -19 21 -19 27 -1 5 15 -33 61 -56 67 -11 2 -29
-2 -40 -10z"/>
<path d="M3625 981 c-8 -13 83 -121 102 -121 22 0 15 12 -42 73 -30 33 -56 54
-60 48z"/>
<path d="M115 950 c-3 -5 -1 -10 4 -10 6 0 11 5 11 10 0 6 -2 10 -4 10 -3 0
-8 -4 -11 -10z"/>
<path d="M3530 910 l-45 -39 35 5 c33 5 37 2 73 -45 33 -45 57 -64 57 -44 0 3
-18 30 -40 59 -22 29 -40 56 -40 60 0 4 7 16 17 26 31 35 -10 19 -57 -22z"/>
<path d="M520 819 c-76 -55 -81 -62 -44 -55 42 9 84 -24 84 -67 0 -20 3 -28
10 -21 9 9 40 123 43 159 3 34 -34 27 -93 -16z m58 -35 c-4 -25 -36 -30 -45
-8 -4 11 1 22 12 30 22 16 39 5 33 -22z"/>
<path d="M3449 845 c-4 -5 -10 -29 -14 -52 -8 -52 -19 -60 -42 -33 -19 22 -33
26 -33 9 0 -15 83 -128 94 -129 8 0 5 17 -8 50 -3 8 -2 22 4 30 8 13 14 13 42
2 58 -24 68 -25 68 -10 0 8 -18 21 -40 28 -50 17 -58 26 -62 75 -2 22 -6 36
-9 30z"/>
<path d="M685 780 c20 -22 18 -30 -30 -107 -36 -59 -14 -63 25 -4 42 66 54 75
79 61 16 -8 21 -8 21 2 0 12 -87 68 -106 68 -4 0 1 -9 11 -20z"/>
<path d="M3300 738 c0 -7 14 -33 30 -58 37 -56 38 -82 4 -101 -24 -13 -28 -12
-53 17 -14 17 -34 45 -43 62 -16 31 -38 43 -38 22 0 -20 72 -118 90 -123 11
-3 34 3 52 12 28 14 33 21 32 52 -1 53 -74 168 -74 117z"/>
<path d="M807 648 c-2 -40 -7 -84 -11 -98 -6 -22 -3 -20 24 12 17 21 49 48 71
60 21 12 39 25 39 30 0 13 -24 9 -46 -7 -31 -24 -43 -17 -50 25 -11 65 -22 56
-27 -22z"/>
<path d="M3143 653 c-9 -3 -11 -20 -7 -59 8 -66 -5 -70 -50 -18 -22 25 -36 34
-48 29 -24 -10 -23 -15 18 -96 39 -78 55 -86 31 -15 -9 26 -13 46 -9 46 3 0
23 -17 44 -37 32 -31 38 -34 44 -19 4 9 4 32 1 50 -8 51 7 64 27 22 16 -33 33
-52 41 -45 2 2 -10 31 -25 64 -16 33 -29 66 -30 73 0 12 -15 15 -37 5z"/>
<path d="M925 559 c-59 -60 -59 -61 -28 -54 44 9 93 -17 93 -50 0 -14 4 -25 9
-25 10 0 26 134 19 166 -6 35 -33 25 -93 -37z m65 -19 c0 -23 -5 -30 -19 -30
-23 0 -32 19 -19 43 15 28 38 21 38 -13z"/>
<path d="M3550 560 c0 -5 5 -10 10 -10 6 0 10 5 10 10 0 6 -4 10 -10 10 -5 0
-10 -4 -10 -10z"/>
<path d="M536 536 c3 -9 11 -16 16 -16 13 0 5 23 -10 28 -7 2 -10 -2 -6 -12z"/>
<path d="M1163 537 c-18 -27 -53 -141 -46 -148 5 -4 22 -10 38 -14 27 -5 28
-4 7 5 -27 11 -27 47 -1 63 13 8 24 6 43 -6 30 -20 34 -51 9 -66 -16 -9 -16
-10 4 -11 25 0 46 30 37 53 -3 9 2 26 10 40 17 25 13 52 -7 60 -7 3 -29 12
-49 21 -29 12 -39 13 -45 3z m79 -40 c21 -33 -5 -53 -47 -37 -24 9 -33 38 -18
54 10 10 56 -3 65 -17z"/>
<path d="M2847 523 c-11 -10 -8 -173 2 -173 5 0 11 10 13 23 4 31 64 51 95 31
43 -27 32 4 -23 65 -53 58 -72 70 -87 54z m53 -58 c15 -18 6 -45 -15 -45 -18
0 -30 24 -21 45 7 19 20 19 36 0z"/>
<path d="M1327 483 c-3 -5 -8 -24 -11 -43 -4 -19 -12 -47 -18 -62 -5 -14 -8
-35 -5 -45 3 -14 8 -9 21 20 13 30 21 37 45 37 38 0 54 -21 46 -60 -4 -18 -3
-30 3 -30 9 0 28 51 47 133 10 38 -13 36 -26 -3 -9 -24 -17 -30 -39 -30 -37 0
-52 20 -44 59 6 28 -7 44 -19 24z"/>
<path d="M2740 478 c0 -7 7 -37 14 -66 21 -76 6 -99 -45 -72 -15 8 -19 7 -19
-4 0 -18 33 -30 60 -21 31 10 42 39 31 83 -5 20 -12 49 -15 65 -6 27 -26 38
-26 15z"/>
<path d="M2543 438 c-8 -13 -31 -128 -32 -163 -1 -16 4 -14 25 13 29 37 75 43
106 15 32 -29 20 5 -28 77 -48 72 -57 79 -71 58z m47 -92 c-20 -25 -40 -19
-40 12 0 39 10 46 34 23 16 -17 17 -23 6 -35z"/>
<path d="M1514 370 c-26 -39 -44 -73 -40 -77 3 -4 12 -1 18 5 21 21 67 14 94
-15 13 -14 26 -24 28 -22 5 5 -21 156 -29 169 -12 20 -24 9 -71 -60z m62 -6
c8 -29 -7 -49 -30 -41 -19 7 -21 38 -4 55 18 18 27 15 34 -14z"/>
<path d="M1676 378 c-13 -88 -15 -128 -6 -128 6 0 14 10 19 23 5 13 16 28 24
35 17 14 24 7 51 -45 17 -33 36 -44 36 -20 0 6 -10 31 -22 55 l-23 43 28 24
c15 13 27 27 27 30 0 12 -24 3 -52 -20 -40 -34 -58 -32 -58 5 0 40 -18 38 -24
-2z"/>
<path d="M2321 368 c0 -63 13 -121 24 -118 6 2 9 12 7 22 -3 19 13 48 27 48 4
0 24 -17 46 -37 42 -40 64 -29 24 13 -21 23 -22 25 -4 43 12 14 15 28 11 46
-6 24 -10 25 -71 25 l-65 0 1 -42z m107 5 c3 -17 -3 -26 -23 -33 -37 -14 -43
-13 -55 11 -16 29 5 51 44 47 23 -2 32 -9 34 -25z"/>
<path d="M1850 391 c0 -5 10 -11 23 -13 20 -3 22 -8 22 -73 0 -81 19 -106 23
-30 4 81 9 95 37 95 43 0 27 17 -21 24 -64 8 -84 8 -84 -3z"/>
<path d="M2157 393 c-10 -10 -8 -146 3 -163 8 -13 10 -13 14 0 3 8 6 24 8 35
2 13 18 25 48 35 51 18 64 48 34 81 -17 19 -92 28 -107 12z m87 -36 c9 -15 7
-21 -9 -33 -36 -27 -67 -1 -51 42 8 20 46 14 60 -9z"/>
<path d="M2010 306 c0 -95 15 -115 25 -33 8 66 4 109 -12 115 -10 3 -13 -18
-13 -82z"/>
</g>
</svg>
